# File created by Blade
# Date/Time:  Tue Apr 07 21:36:59 2015
# Frame Rate: 120.000 fps
#------------------------------------------------------
:FULLY-SPECIFIED
:DEGREES
561
root -9.407435 50.058235 9.859070 192.367382 -103.291089 -156.333618
Spine -62.792186 -18.463685 3.192533
Head -84.715387 1.405321 13.574581
LeftShoulder -24.225382 22.830823 35.050818
LeftArm 195.884577 -82.847025 -202.642079
LeftForeArm -11.122895 -0.000000 29.085936
LeftHand 20.600911 -0.000000 42.755978
LeftHandThumb1 -26.253704 0.000000 33.147579
RightShoulder -21.071612 15.798405 -44.877036
RightArm -5.484712 43.429112 25.212655
RightForeArm -2.875476 -0.000000 47.713028
RightHand 14.151561 -0.000000 -25.690838
RightHandThumb1 -24.326973 -0.000000 -32.862282
LeftUpLeg 19.128228 -14.727497 14.041987
LeftLeg 131.217727 -0.000000 -0.000000
LeftFoot 45.294814 1.866561 -9.544296
LeftToeBase 28.304326 -0.000000 -0.000000
RightUpLeg -3.372019 -4.684006 0.917662
RightLeg 146.622256 -0.000000 -0.000000
RightFoot 59.163653 6.594895 9.959657
RightToeBase 38.713384 -0.000000 -0.000000
562
root -9.435297 50.180241 9.873682 192.107218 -103.178877 -155.612875
Spine -63.092558 -18.454669 3.047394
Head -84.892854 1.295567 13.327170
LeftShoulder -24.250440 22.873430 35.280821
LeftArm 205.453491 -83.141809 -213.526491
LeftForeArm -11.502520 -0.000000 29.488094
LeftHand 20.460407 0.000000 42.648402
LeftHandThumb1 -26.253704 0.000000 33.147579
RightShoulder -21.028405 14.768778 -44.760830
RightArm -6.699617 44.091394 24.791947
RightForeArm -2.470970 -0.000000 48.506659
RightHand 13.948968 0.000000 -26.187561
RightHandThumb1 -24.326973 -0.000000 -32.862282
LeftUpLeg 19.040313 -15.404237 13.951703
LeftLeg 134.289178 -0.000000 -0.000000
LeftFoot 46.660571 0.349471 -9.430418
LeftToeBase 27.415633 -0.000000 -0.000000
RightUpLeg -4.105967 -4.595087 0.444966
RightLeg 147.914701 -0.000000 -0.000000
RightFoot 61.014378 10.138179 9.589172
RightToeBase 33.612517 -0.000000 -0.000000
563
root -9.466508 50.291255 9.891151 192.611406 -103.106875 -155.796357
Spine -63.097269 -18.194868 2.857012
Head -85.150582 0.710014 12.853478
LeftShoulder -24.107755 22.717873 35.386186
LeftArm 214.762966 -83.578093 -224.053352
LeftForeArm -11.622063 -0.000000 29.882558
LeftHand 20.149553 -0.000000 42.339862
LeftHandThumb1 -26.253704 0.000000 33.147579
RightShoulder -21.331872 13.854709 -44.920488
RightArm -7.422266 44.577510 24.720523
RightForeArm -1.978983 -0.000000 48.903595
RightHand 13.839876 -0.000000 -26.542421
RightHandThumb1 -24.326973 -0.000000 -32.862282
LeftUpLeg 18.639738 -15.916670 14.079247
LeftLeg 136.646495 -0.000000 -0.000000
LeftFoot 47.723611 -1.366569 -9.475332
LeftToeBase 26.841591 -0.000000 -0.000000
RightUpLeg -4.955485 -4.215581 0.190790
RightLeg 147.663382 -0.000000 -0.000000
RightFoot 60.344465 10.042383 9.383367
RightToeBase 36.337634 -0.000000 -0.000000
564
root -9.502575 50.381083 9.912217 193.498636 -103.079678 -156.523007
Spine -62.903854 -17.966418 2.890258
Head -85.209081 0.182076 12.354854
LeftShoulder -24.387147 22.149784 35.525437
LeftArm 222.821800 -84.609124 -233.130028
LeftForeArm -11.227719 -0.000000 30.224927
LeftHand 19.716160 -0.000000 41.832780
LeftHandThumb1 -26.253704 0.000000 33.147579
RightShoulder -21.568980 13.455647 -45.163541
RightArm -7.745537 44.859722 24.800351
RightForeArm -1.472379 -0.000000 48.876981
RightHand 13.728573 -0.000000 -27.150294
RightHandThumb1 -24.326973 -0.000000 -32.862282
LeftUpLeg 17.940852 -16.236718 14.382221
LeftLeg 138.181273 -0.000000 -0.000000
LeftFoot 48.422806 -2.561724 -10.048174
LeftToeBase 26.322992 -0.000000 -0.000000
RightUpLeg -5.963873 -3.882149 0.070944
RightLeg 146.269933 -0.000000 -0.000000
RightFoot 58.416624 8.868854 8.168376
RightToeBase 36.512290 -0.000000 -0.000000
565
root -9.542855 50.449627 9.931944 194.724089 -103.113402 -157.810601
Spine -62.397799 -17.757996 3.025762
Head -85.034169 -0.332565 11.823308
LeftShoulder -24.736830 22.139298 35.370701
LeftArm 228.210117 -85.407049 -239.521607
LeftForeArm -10.734827 -0.000000 30.456496
LeftHand 19.222867 -0.000000 41.156704
LeftHandThumb1 -26.253704 0.000000 33.147579
RightShoulder -21.863340 13.564576 -45.491313
RightArm -7.713981 44.933412 25.038576
RightForeArm -1.013246 0.000000 48.553460
RightHand 13.783038 -0.000000 -27.430144
RightHandThumb1 -24.326973 -0.000000 -32.862282
LeftUpLeg 16.988460 -16.427579 14.875747
LeftLeg 138.862460 -0.000000 -0.000000
LeftFoot 48.799421 -3.084237 -11.486123
LeftToeBase 24.856582 -0.000000 -0.000000
RightUpLeg -7.001659 -3.455639 0.125336
RightLeg 143.799972 -0.000000 -0.000000
RightFoot 56.429299 6.874520 7.416912
RightToeBase 36.766206 -0.000000 -0.000000
566
root -9.592296 50.487229 9.952081 195.972930 -103.134705 -159.427813
Spine -61.496158 -17.525530 3.140795
Head -84.494174 -0.777489 11.284457
LeftShoulder -25.217029 22.829709 34.847730
LeftArm 223.106139 -85.995432 -235.298767
LeftForeArm -10.359088 -0.000000 30.489320
LeftHand 18.848768 0.000000 40.306720
LeftHandThumb1 -26.253704 0.000000 33.147579
RightShoulder -22.137241 13.828690 -45.790616
RightArm -7.290955 44.892707 25.489043
RightForeArm -0.544501 -0.000000 48.072938
RightHand 13.965758 -0.000000 -27.598663
RightHandThumb1 -24.326973 -0.000000 -32.862282
LeftUpLeg 15.950249 -16.354074 15.422940
LeftLeg 138.682627 -0.000000 -0.000000
LeftFoot 48.505442 -3.487378 -12.949752
LeftToeBase 22.757196 -0.000000 -0.000000
RightUpLeg -7.844827 -2.932170 0.274264
RightLeg 140.580842 -0.000000 -0.000000
RightFoot 54.628327 5.042045 6.659962
RightToeBase 36.316768 -0.000000 -0.000000
567
root -9.643772 50.498528 9.960739 197.360711 -103.184113 -161.371803
Spine -60.368480 -17.368127 3.292593
Head -83.465624 -0.993334 10.739850
LeftShoulder -25.696595 24.230504 34.000828
LeftArm 208.954451 -86.188339 -221.780195
LeftForeArm -10.400932 -0.000000 30.160613
LeftHand 18.605071 0.000000 39.589968
LeftHandThumb1 -26.253704 0.000000 33.147579
RightShoulder -22.125005 14.227139 -45.940601
RightArm -6.798198 44.860256 25.970213
RightForeArm -0.583585 0.000000 47.597819
RightHand 14.041810 -0.000000 -27.996095
RightHandThumb1 -24.326973 -0.000000 -32.862282
LeftUpLeg 14.707002 -16.107559 16.064015
LeftLeg 137.789087 -0.000000 -0.000000
LeftFoot 47.383397 -3.377116 -14.650520
LeftToeBase 20.788979 -0.000000 -0.000000
RightUpLeg -8.545004 -2.404806 0.637934
RightLeg 136.847728 -0.000000 -0.000000
RightFoot 52.868004 3.083677 5.927205
RightToeBase 36.323653 -0.000000 -0.000000
568
root -9.701761 50.479855 9.961304 198.748272 -103.264388 -163.597872
Spine -58.930671 -17.258563 3.327334
Head -82.051584 -1.176708 10.382480
LeftShoulder -25.983154 25.680147 33.305421
LeftArm 191.374896 -86.238384 -204.724989
LeftForeArm -10.527448 -0.000000 29.675139
LeftHand 18.364313 0.000000 38.742319
LeftHandThumb1 -26.253704 0.000000 33.147579
RightShoulder -21.826786 14.547922 -45.853582
RightArm -6.280467 45.024822 26.401259
RightForeArm -0.193215 -0.000000 47.152683
RightHand 14.660960 -0.000000 -27.500408
RightHandThumb1 -24.326973 -0.000000 -32.862282
LeftUpLeg 13.434570 -15.708917 16.703965
LeftLeg 136.235287 -0.000000 -0.000000
LeftFoot 45.102225 -3.325431 -15.908637
LeftToeBase 20.409103 -0.000000 -0.000000
RightUpLeg -8.914988 -1.929632 1.167252
RightLeg 132.673229 -0.000000 -0.000000
RightFoot 51.280003 0.752306 5.107183
RightToeBase 36.697743 -0.000000 -0.000000
569
root -9.762052 50.431566 9.961474 199.880992 -103.357603 -165.791028
Spine -57.224375 -17.121418 3.210107
Head -80.288903 -1.395178 9.997101
LeftShoulder -26.314756 26.604157 32.622793
LeftArm 168.183171 -86.276367 -181.387105
LeftForeArm -10.432103 -0.000000 28.776954
LeftHand 18.450245 -0.000000 38.100497
LeftHandThumb1 -26.253704 0.000000 33.147579
RightShoulder -21.394397 14.752801 -45.699569
RightArm -5.549122 44.878762 27.001290
RightForeArm 0.071029 -0.000000 46.790067
RightHand 15.151180 -0.000000 -26.779236
RightHandThumb1 -24.326973 -0.000000 -32.862282
LeftUpLeg 12.172756 -15.181816 17.227262
LeftLeg 134.136217 -0.000000 -0.000000
LeftFoot 42.015833 -3.080614 -16.993086
LeftToeBase 19.090703 -0.000000 -0.000000
RightUpLeg -9.023271 -1.517496 1.781241
RightLeg 128.197550 -0.000000 -0.000000
RightFoot 49.817269 -1.839598 4.312393
RightToeBase 36.672281 -0.000000 -0.000000
570
root -9.816754 50.356684 9.961822 200.614692 -103.489809 -167.759021
Spine -55.226509 -16.980440 2.912751
Head -78.345088 -1.686313 9.568997
LeftShoulder -26.723443 27.564007 31.809656
LeftArm 144.255241 -85.470695 -156.944934
LeftForeArm -9.842165 -0.000000 27.573868
LeftHand 18.703865 -0.000000 37.523397
LeftHandThumb1 -26.253704 0.000000 33.147579
RightShoulder -21.023095 14.700705 -45.464324
RightArm -4.281995 44.630906 28.081317
RightForeArm -0.049706 0.000000 46.491133
RightHand 15.401722 -0.000000 -26.169724
RightHandThumb1 -24.326973 -0.000000 -32.862282
LeftUpLeg 10.924951 -14.636304 17.593196
LeftLeg 131.602529 -0.000000 -0.000000
LeftFoot 38.004954 -3.109975 -17.538269
LeftToeBase 18.095971 -0.000000 -0.000000
RightUpLeg -8.903261 -1.077674 2.399607
RightLeg 123.518998 -0.000000 -0.000000
RightFoot 48.223266 -4.262023 4.072592
RightToeBase 36.964956 -0.000000 -0.000000
571
root -9.863821 50.251430 9.960429 201.164197 -103.679914 -169.712701
Spine -52.963386 -16.876139 2.592648
Head -76.213782 -1.889267 9.023584
LeftShoulder -26.803168 29.285287 30.823948
LeftArm 134.939757 -84.185983 -147.303263
LeftForeArm -9.979720 -0.000000 26.529165
LeftHand 18.240476 0.000000 36.116252
LeftHandThumb1 -26.253704 0.000000 33.147579
RightShoulder -20.576435 14.583325 -45.099260
RightArm -2.692498 44.216287 29.243092
RightForeArm 0.281614 -0.000000 46.181651
RightHand 15.896518 0.000000 -26.289815
RightHandThumb1 -24.326973 -0.000000 -32.862282
LeftUpLeg 9.762608 -14.240498 17.819920
LeftLeg 128.699350 -0.000000 -0.000000
LeftFoot 33.643622 -3.467918 -17.929145
LeftToeBase 16.245247 -0.000000 -0.000000
RightUpLeg -8.604806 -0.697677 3.081795
RightLeg 118.780963 -0.000000 -0.000000
RightFoot 46.382792 -5.951137 3.577995
RightToeBase 36.955074 -0.000000 -0.000000
572
root -9.896654 50.124648 9.963951 201.260269 -103.873922 -171.336709
Spine -50.426059 -16.681623 2.058652
Head -74.044357 -2.322235 8.513753
LeftShoulder -26.838170 30.290791 30.030475
LeftArm 124.727497 -82.875876 -136.362112
LeftForeArm -9.324006 -0.000000 25.374748
LeftHand 17.581553 0.000000 35.107753
LeftHandThumb1 -26.253704 0.000000 33.147579
RightShoulder -20.177133 14.266374 -44.663148
RightArm -0.872935 43.592422 30.519836
RightForeArm 0.749345 -0.000000 46.014242
RightHand 16.077595 -0.000000 -26.529628
RightHandThumb1 -24.326973 -0.000000 -32.862282
LeftUpLeg 8.644946 -13.845878 17.833813
LeftLeg 125.555428 -0.000000 -0.000000
LeftFoot 28.624714 -3.536809 -18.484182
LeftToeBase 14.417226 -0.000000 -0.000000
RightUpLeg -8.192809 -0.393887 3.703946
RightLeg 113.970752 -0.000000 -0.000000
RightFoot 44.696439 -7.094734 2.588392
RightToeBase 36.305619 -0.000000 -0.000000
